<?xml version="1.0"?><svg width="640" height="480" xmlns="http://www.w3.org/2000/svg">
 <title>power grey</title>
 <defs>
  <filter id="layer1_blur">
   <feGaussianBlur stdDeviation="1" in="SourceGraphic"/>
  </filter>
 </defs>
 <g>
  <title>Layer 1</title>
  <g filter="url(#layer1_blur)" id="layer1">
   <path d="m313.559845,433.3125c-101.545029,0 -183.966095,-82.422516 -183.966095,-183.966095c0,-50.575394 20.527954,-96.309052 53.60379,-129.557617l0.155731,0.155739c6.686584,-9.231239 17.486496,-15.289383 29.748154,-15.289383c20.308731,0 36.808807,16.474037 36.808807,36.782829c0,12.453369 -6.2276,23.427917 -15.704742,30.085602l0.129791,0.129791c-19.87439,20.016251 -32.318024,47.345779 -32.318024,77.693039c0,61.220703 49.93158,110.919586 111.438766,110.919586c61.507172,0 111.412781,-49.698883 111.412781,-110.919586c0,-27.696503 -10.41684,-52.813477 -27.334015,-72.215851c-10.063232,-6.567734 -16.769043,-17.881577 -16.769043,-30.786484c0,-20.308777 16.500092,-36.808792 36.808807,-36.808792c9.928528,0 18.89621,4.00927 25.516937,10.409248l0.519165,-0.519157c33.269867,33.273712 53.889343,79.17804 53.889343,129.921036c0,101.543579 -82.395111,183.966095 -183.940155,183.966095zm-0.02597,-182.694153c-20.382324,0 -36.782837,-16.698303 -36.782837,-37.457748l0,-148.40329c0,-20.759449 16.400513,-37.457748 36.782837,-37.457748c20.382355,0 36.808807,16.69828 36.808807,37.457748l0,148.40329c0,20.759445 -16.426483,37.457748 -36.808807,37.457748z" id="path8" marker-end="none" marker-mid="none" marker-start="none" stroke-opacity="0.841176" stroke-dashoffset="0" stroke-dasharray="7.6116890 7.6116890 " stroke-miterlimit="4" stroke-linejoin="round" stroke-linecap="round" stroke-width="3.805844" fill-rule="evenodd" fill="#666666"/>
  </g>
 </g>
</svg>